<mxfile host="app.diagrams.net" modified="2024-03-13T12:10:02.261Z" agent="Mozilla/5.0 (Windows NT 10.0; Win64; x64) AppleWebKit/537.36 (KHTML, like Gecko) Chrome/122.0.0.0 Safari/537.36 Edg/122.0.0.0" etag="Tfqlmr9i4GV7X2609eLs" version="24.0.5" type="device">
  <diagram name="PÃ¡gina-1" id="KaPxVlsd2KoomJ8fvc6P">
    <mxGraphModel dx="925" dy="818" grid="1" gridSize="10" guides="1" tooltips="1" connect="1" arrows="1" fold="1" page="1" pageScale="1" pageWidth="1654" pageHeight="2336" math="0" shadow="0">
      <root>
        <mxCell id="0" />
        <mxCell id="1" parent="0" />
        <mxCell id="OEOBWxkeJsOvRuTqIj0s-1" value="Shared-Services" style="points=[[0,0],[0.25,0],[0.5,0],[0.75,0],[1,0],[1,0.25],[1,0.5],[1,0.75],[1,1],[0.75,1],[0.5,1],[0.25,1],[0,1],[0,0.75],[0,0.5],[0,0.25]];outlineConnect=0;gradientColor=none;html=1;whiteSpace=wrap;fontSize=12;fontStyle=0;container=1;pointerEvents=0;collapsible=0;recursiveResize=0;shape=mxgraph.aws4.group;grIcon=mxgraph.aws4.group_aws_cloud_alt;strokeColor=#232F3E;fillColor=none;verticalAlign=top;align=left;spacingLeft=30;fontColor=#232F3E;dashed=0;" vertex="1" parent="1">
          <mxGeometry x="90" y="1068" width="780" height="682" as="geometry" />
        </mxCell>
        <mxCell id="OEOBWxkeJsOvRuTqIj0s-3" value="us-east-1" style="points=[[0,0],[0.25,0],[0.5,0],[0.75,0],[1,0],[1,0.25],[1,0.5],[1,0.75],[1,1],[0.75,1],[0.5,1],[0.25,1],[0,1],[0,0.75],[0,0.5],[0,0.25]];outlineConnect=0;gradientColor=none;html=1;whiteSpace=wrap;fontSize=12;fontStyle=0;container=1;pointerEvents=0;collapsible=0;recursiveResize=0;shape=mxgraph.aws4.group;grIcon=mxgraph.aws4.group_region;strokeColor=#00A4A6;fillColor=none;verticalAlign=top;align=left;spacingLeft=30;fontColor=#147EBA;dashed=1;" vertex="1" parent="OEOBWxkeJsOvRuTqIj0s-1">
          <mxGeometry x="30" y="36" width="730" height="444" as="geometry" />
        </mxCell>
        <mxCell id="OEOBWxkeJsOvRuTqIj0s-5" value="Eventbridgge&lt;div&gt;&lt;br&gt;&lt;/div&gt;" style="sketch=0;points=[[0,0,0],[0.25,0,0],[0.5,0,0],[0.75,0,0],[1,0,0],[0,1,0],[0.25,1,0],[0.5,1,0],[0.75,1,0],[1,1,0],[0,0.25,0],[0,0.5,0],[0,0.75,0],[1,0.25,0],[1,0.5,0],[1,0.75,0]];outlineConnect=0;fontColor=#232F3E;fillColor=#E7157B;strokeColor=#ffffff;dashed=0;verticalLabelPosition=bottom;verticalAlign=top;align=center;html=1;fontSize=12;fontStyle=0;aspect=fixed;shape=mxgraph.aws4.resourceIcon;resIcon=mxgraph.aws4.eventbridge;" vertex="1" parent="OEOBWxkeJsOvRuTqIj0s-3">
          <mxGeometry x="40" y="36" width="78" height="78" as="geometry" />
        </mxCell>
        <mxCell id="OEOBWxkeJsOvRuTqIj0s-8" value="Lambda&lt;br&gt;ACM-Certificates-Monitoring-Coordinator" style="sketch=0;points=[[0,0,0],[0.25,0,0],[0.5,0,0],[0.75,0,0],[1,0,0],[0,1,0],[0.25,1,0],[0.5,1,0],[0.75,1,0],[1,1,0],[0,0.25,0],[0,0.5,0],[0,0.75,0],[1,0.25,0],[1,0.5,0],[1,0.75,0]];outlineConnect=0;fontColor=#232F3E;fillColor=#ED7100;strokeColor=#ffffff;dashed=0;verticalLabelPosition=bottom;verticalAlign=top;align=center;html=1;fontSize=12;fontStyle=0;aspect=fixed;shape=mxgraph.aws4.resourceIcon;resIcon=mxgraph.aws4.lambda;" vertex="1" parent="OEOBWxkeJsOvRuTqIj0s-3">
          <mxGeometry x="326" y="36" width="78" height="78" as="geometry" />
        </mxCell>
        <mxCell id="OEOBWxkeJsOvRuTqIj0s-10" value="Lambda&lt;br&gt;ACM-Certificates-Monitoring" style="sketch=0;points=[[0,0,0],[0.25,0,0],[0.5,0,0],[0.75,0,0],[1,0,0],[0,1,0],[0.25,1,0],[0.5,1,0],[0.75,1,0],[1,1,0],[0,0.25,0],[0,0.5,0],[0,0.75,0],[1,0.25,0],[1,0.5,0],[1,0.75,0]];outlineConnect=0;fontColor=#232F3E;fillColor=#ED7100;strokeColor=#ffffff;dashed=0;verticalLabelPosition=bottom;verticalAlign=top;align=center;html=1;fontSize=12;fontStyle=0;aspect=fixed;shape=mxgraph.aws4.resourceIcon;resIcon=mxgraph.aws4.lambda;" vertex="1" parent="OEOBWxkeJsOvRuTqIj0s-3">
          <mxGeometry x="326" y="183" width="78" height="78" as="geometry" />
        </mxCell>
        <mxCell id="OEOBWxkeJsOvRuTqIj0s-13" value="Cloudwatch Logs" style="sketch=0;points=[[0,0,0],[0.25,0,0],[0.5,0,0],[0.75,0,0],[1,0,0],[0,1,0],[0.25,1,0],[0.5,1,0],[0.75,1,0],[1,1,0],[0,0.25,0],[0,0.5,0],[0,0.75,0],[1,0.25,0],[1,0.5,0],[1,0.75,0]];points=[[0,0,0],[0.25,0,0],[0.5,0,0],[0.75,0,0],[1,0,0],[0,1,0],[0.25,1,0],[0.5,1,0],[0.75,1,0],[1,1,0],[0,0.25,0],[0,0.5,0],[0,0.75,0],[1,0.25,0],[1,0.5,0],[1,0.75,0]];outlineConnect=0;fontColor=#232F3E;fillColor=#E7157B;strokeColor=#ffffff;dashed=0;verticalLabelPosition=bottom;verticalAlign=top;align=center;html=1;fontSize=12;fontStyle=0;aspect=fixed;shape=mxgraph.aws4.resourceIcon;resIcon=mxgraph.aws4.cloudwatch_2;" vertex="1" parent="OEOBWxkeJsOvRuTqIj0s-3">
          <mxGeometry x="590" y="183" width="78" height="78" as="geometry" />
        </mxCell>
        <mxCell id="OEOBWxkeJsOvRuTqIj0s-19" value="Amazon Certificate&lt;br&gt;Manager" style="sketch=0;points=[[0,0,0],[0.25,0,0],[0.5,0,0],[0.75,0,0],[1,0,0],[0,1,0],[0.25,1,0],[0.5,1,0],[0.75,1,0],[1,1,0],[0,0.25,0],[0,0.5,0],[0,0.75,0],[1,0.25,0],[1,0.5,0],[1,0.75,0]];outlineConnect=0;fontColor=#232F3E;fillColor=#DD344C;strokeColor=#ffffff;dashed=0;verticalLabelPosition=bottom;verticalAlign=top;align=center;html=1;fontSize=12;fontStyle=0;aspect=fixed;shape=mxgraph.aws4.resourceIcon;resIcon=mxgraph.aws4.certificate_manager_3;" vertex="1" parent="OEOBWxkeJsOvRuTqIj0s-3">
          <mxGeometry x="326" y="326" width="78" height="78" as="geometry" />
        </mxCell>
        <mxCell id="OEOBWxkeJsOvRuTqIj0s-24" value="Amazon SNS" style="sketch=0;points=[[0,0,0],[0.25,0,0],[0.5,0,0],[0.75,0,0],[1,0,0],[0,1,0],[0.25,1,0],[0.5,1,0],[0.75,1,0],[1,1,0],[0,0.25,0],[0,0.5,0],[0,0.75,0],[1,0.25,0],[1,0.5,0],[1,0.75,0]];outlineConnect=0;fontColor=#232F3E;fillColor=#E7157B;strokeColor=#ffffff;dashed=0;verticalLabelPosition=bottom;verticalAlign=top;align=center;html=1;fontSize=12;fontStyle=0;aspect=fixed;shape=mxgraph.aws4.resourceIcon;resIcon=mxgraph.aws4.sns;" vertex="1" parent="OEOBWxkeJsOvRuTqIj0s-3">
          <mxGeometry x="590" y="36" width="78" height="78" as="geometry" />
        </mxCell>
        <mxCell id="OEOBWxkeJsOvRuTqIj0s-32" style="edgeStyle=orthogonalEdgeStyle;rounded=0;orthogonalLoop=1;jettySize=auto;html=1;exitX=1;exitY=0.5;exitDx=0;exitDy=0;exitPerimeter=0;entryX=0;entryY=0.5;entryDx=0;entryDy=0;entryPerimeter=0;" edge="1" parent="OEOBWxkeJsOvRuTqIj0s-3" source="OEOBWxkeJsOvRuTqIj0s-5" target="OEOBWxkeJsOvRuTqIj0s-8">
          <mxGeometry relative="1" as="geometry" />
        </mxCell>
        <mxCell id="OEOBWxkeJsOvRuTqIj0s-34" style="edgeStyle=orthogonalEdgeStyle;rounded=0;orthogonalLoop=1;jettySize=auto;html=1;entryX=0;entryY=0.5;entryDx=0;entryDy=0;entryPerimeter=0;" edge="1" parent="OEOBWxkeJsOvRuTqIj0s-3" source="OEOBWxkeJsOvRuTqIj0s-8" target="OEOBWxkeJsOvRuTqIj0s-24">
          <mxGeometry relative="1" as="geometry" />
        </mxCell>
        <mxCell id="OEOBWxkeJsOvRuTqIj0s-36" value="" style="edgeStyle=orthogonalEdgeStyle;html=1;endArrow=block;elbow=vertical;startArrow=block;startFill=1;endFill=1;strokeColor=#545B64;rounded=0;exitX=0;exitY=0.75;exitDx=0;exitDy=0;exitPerimeter=0;entryX=0;entryY=0.25;entryDx=0;entryDy=0;entryPerimeter=0;" edge="1" parent="OEOBWxkeJsOvRuTqIj0s-3" source="OEOBWxkeJsOvRuTqIj0s-8" target="OEOBWxkeJsOvRuTqIj0s-10">
          <mxGeometry width="100" relative="1" as="geometry">
            <mxPoint x="180" y="226" as="sourcePoint" />
            <mxPoint x="280" y="226" as="targetPoint" />
            <Array as="points">
              <mxPoint x="240" y="95" />
              <mxPoint x="240" y="203" />
            </Array>
          </mxGeometry>
        </mxCell>
        <mxCell id="OEOBWxkeJsOvRuTqIj0s-38" value="" style="edgeStyle=orthogonalEdgeStyle;html=1;endArrow=block;elbow=vertical;startArrow=block;startFill=1;endFill=1;strokeColor=#545B64;rounded=0;entryX=0;entryY=0.75;entryDx=0;entryDy=0;entryPerimeter=0;exitX=0;exitY=0.5;exitDx=0;exitDy=0;exitPerimeter=0;" edge="1" parent="OEOBWxkeJsOvRuTqIj0s-3" source="OEOBWxkeJsOvRuTqIj0s-19" target="OEOBWxkeJsOvRuTqIj0s-10">
          <mxGeometry width="100" relative="1" as="geometry">
            <mxPoint x="150" y="296" as="sourcePoint" />
            <mxPoint x="250" y="296" as="targetPoint" />
            <Array as="points">
              <mxPoint x="240" y="365" />
              <mxPoint x="240" y="241" />
            </Array>
          </mxGeometry>
        </mxCell>
        <mxCell id="OEOBWxkeJsOvRuTqIj0s-40" style="edgeStyle=orthogonalEdgeStyle;rounded=0;orthogonalLoop=1;jettySize=auto;html=1;exitX=1;exitY=0.5;exitDx=0;exitDy=0;exitPerimeter=0;entryX=0;entryY=0.5;entryDx=0;entryDy=0;entryPerimeter=0;" edge="1" parent="OEOBWxkeJsOvRuTqIj0s-3" source="OEOBWxkeJsOvRuTqIj0s-10" target="OEOBWxkeJsOvRuTqIj0s-13">
          <mxGeometry relative="1" as="geometry" />
        </mxCell>
        <mxCell id="OEOBWxkeJsOvRuTqIj0s-41" style="edgeStyle=orthogonalEdgeStyle;rounded=0;orthogonalLoop=1;jettySize=auto;html=1;exitX=1;exitY=0.75;exitDx=0;exitDy=0;exitPerimeter=0;entryX=0.5;entryY=0;entryDx=0;entryDy=0;entryPerimeter=0;" edge="1" parent="OEOBWxkeJsOvRuTqIj0s-3" source="OEOBWxkeJsOvRuTqIj0s-8" target="OEOBWxkeJsOvRuTqIj0s-13">
          <mxGeometry relative="1" as="geometry">
            <Array as="points">
              <mxPoint x="404" y="96" />
              <mxPoint x="560" y="96" />
              <mxPoint x="560" y="156" />
              <mxPoint x="629" y="156" />
            </Array>
          </mxGeometry>
        </mxCell>
        <mxCell id="OEOBWxkeJsOvRuTqIj0s-26" value="sa-east-1" style="points=[[0,0],[0.25,0],[0.5,0],[0.75,0],[1,0],[1,0.25],[1,0.5],[1,0.75],[1,1],[0.75,1],[0.5,1],[0.25,1],[0,1],[0,0.75],[0,0.5],[0,0.25]];outlineConnect=0;gradientColor=none;html=1;whiteSpace=wrap;fontSize=12;fontStyle=0;container=1;pointerEvents=0;collapsible=0;recursiveResize=0;shape=mxgraph.aws4.group;grIcon=mxgraph.aws4.group_region;strokeColor=#00A4A6;fillColor=none;verticalAlign=top;align=left;spacingLeft=30;fontColor=#147EBA;dashed=1;" vertex="1" parent="OEOBWxkeJsOvRuTqIj0s-1">
          <mxGeometry x="30" y="502" width="730" height="148" as="geometry" />
        </mxCell>
        <mxCell id="OEOBWxkeJsOvRuTqIj0s-27" value="Amazon Certificate&lt;br&gt;Manager" style="sketch=0;points=[[0,0,0],[0.25,0,0],[0.5,0,0],[0.75,0,0],[1,0,0],[0,1,0],[0.25,1,0],[0.5,1,0],[0.75,1,0],[1,1,0],[0,0.25,0],[0,0.5,0],[0,0.75,0],[1,0.25,0],[1,0.5,0],[1,0.75,0]];outlineConnect=0;fontColor=#232F3E;fillColor=#DD344C;strokeColor=#ffffff;dashed=0;verticalLabelPosition=bottom;verticalAlign=top;align=center;html=1;fontSize=12;fontStyle=0;aspect=fixed;shape=mxgraph.aws4.resourceIcon;resIcon=mxgraph.aws4.certificate_manager_3;" vertex="1" parent="OEOBWxkeJsOvRuTqIj0s-26">
          <mxGeometry x="326" y="20" width="78" height="78" as="geometry" />
        </mxCell>
        <mxCell id="OEOBWxkeJsOvRuTqIj0s-39" value="" style="edgeStyle=orthogonalEdgeStyle;html=1;endArrow=block;elbow=vertical;startArrow=block;startFill=1;endFill=1;strokeColor=#545B64;rounded=0;exitX=0;exitY=0.5;exitDx=0;exitDy=0;exitPerimeter=0;entryX=0;entryY=0.5;entryDx=0;entryDy=0;entryPerimeter=0;" edge="1" parent="OEOBWxkeJsOvRuTqIj0s-1" source="OEOBWxkeJsOvRuTqIj0s-27" target="OEOBWxkeJsOvRuTqIj0s-10">
          <mxGeometry width="100" relative="1" as="geometry">
            <mxPoint x="100" y="332" as="sourcePoint" />
            <mxPoint x="200" y="332" as="targetPoint" />
            <Array as="points">
              <mxPoint x="230" y="561" />
              <mxPoint x="230" y="258" />
            </Array>
          </mxGeometry>
        </mxCell>
        <mxCell id="OEOBWxkeJsOvRuTqIj0s-46" value="Other AWS Accounts" style="points=[[0,0],[0.25,0],[0.5,0],[0.75,0],[1,0],[1,0.25],[1,0.5],[1,0.75],[1,1],[0.75,1],[0.5,1],[0.25,1],[0,1],[0,0.75],[0,0.5],[0,0.25]];outlineConnect=0;gradientColor=none;html=1;whiteSpace=wrap;fontSize=12;fontStyle=0;container=1;pointerEvents=0;collapsible=0;recursiveResize=0;shape=mxgraph.aws4.group;grIcon=mxgraph.aws4.group_aws_cloud_alt;strokeColor=#232F3E;fillColor=none;verticalAlign=top;align=left;spacingLeft=30;fontColor=#232F3E;dashed=0;" vertex="1" parent="1">
          <mxGeometry x="920" y="1068" width="660" height="352" as="geometry" />
        </mxCell>
        <mxCell id="OEOBWxkeJsOvRuTqIj0s-47" value="us-east-1" style="points=[[0,0],[0.25,0],[0.5,0],[0.75,0],[1,0],[1,0.25],[1,0.5],[1,0.75],[1,1],[0.75,1],[0.5,1],[0.25,1],[0,1],[0,0.75],[0,0.5],[0,0.25]];outlineConnect=0;gradientColor=none;html=1;whiteSpace=wrap;fontSize=12;fontStyle=0;container=1;pointerEvents=0;collapsible=0;recursiveResize=0;shape=mxgraph.aws4.group;grIcon=mxgraph.aws4.group_region;strokeColor=#00A4A6;fillColor=none;verticalAlign=top;align=left;spacingLeft=30;fontColor=#147EBA;dashed=1;" vertex="1" parent="OEOBWxkeJsOvRuTqIj0s-46">
          <mxGeometry x="40" y="30" width="360" height="300" as="geometry" />
        </mxCell>
        <mxCell id="OEOBWxkeJsOvRuTqIj0s-48" value="Lambda&lt;br&gt;ACM-Certificates-Monitoring" style="sketch=0;points=[[0,0,0],[0.25,0,0],[0.5,0,0],[0.75,0,0],[1,0,0],[0,1,0],[0.25,1,0],[0.5,1,0],[0.75,1,0],[1,1,0],[0,0.25,0],[0,0.5,0],[0,0.75,0],[1,0.25,0],[1,0.5,0],[1,0.75,0]];outlineConnect=0;fontColor=#232F3E;fillColor=#ED7100;strokeColor=#ffffff;dashed=0;verticalLabelPosition=bottom;verticalAlign=top;align=center;html=1;fontSize=12;fontStyle=0;aspect=fixed;shape=mxgraph.aws4.resourceIcon;resIcon=mxgraph.aws4.lambda;" vertex="1" parent="OEOBWxkeJsOvRuTqIj0s-47">
          <mxGeometry x="50" y="102" width="78" height="78" as="geometry" />
        </mxCell>
        <mxCell id="OEOBWxkeJsOvRuTqIj0s-49" value="Cloudwatch Logs" style="sketch=0;points=[[0,0,0],[0.25,0,0],[0.5,0,0],[0.75,0,0],[1,0,0],[0,1,0],[0.25,1,0],[0.5,1,0],[0.75,1,0],[1,1,0],[0,0.25,0],[0,0.5,0],[0,0.75,0],[1,0.25,0],[1,0.5,0],[1,0.75,0]];points=[[0,0,0],[0.25,0,0],[0.5,0,0],[0.75,0,0],[1,0,0],[0,1,0],[0.25,1,0],[0.5,1,0],[0.75,1,0],[1,1,0],[0,0.25,0],[0,0.5,0],[0,0.75,0],[1,0.25,0],[1,0.5,0],[1,0.75,0]];outlineConnect=0;fontColor=#232F3E;fillColor=#E7157B;strokeColor=#ffffff;dashed=0;verticalLabelPosition=bottom;verticalAlign=top;align=center;html=1;fontSize=12;fontStyle=0;aspect=fixed;shape=mxgraph.aws4.resourceIcon;resIcon=mxgraph.aws4.cloudwatch_2;" vertex="1" parent="OEOBWxkeJsOvRuTqIj0s-47">
          <mxGeometry x="220" y="10" width="78" height="78" as="geometry" />
        </mxCell>
        <mxCell id="OEOBWxkeJsOvRuTqIj0s-50" value="Amazon Certificate&lt;br&gt;Manager" style="sketch=0;points=[[0,0,0],[0.25,0,0],[0.5,0,0],[0.75,0,0],[1,0,0],[0,1,0],[0.25,1,0],[0.5,1,0],[0.75,1,0],[1,1,0],[0,0.25,0],[0,0.5,0],[0,0.75,0],[1,0.25,0],[1,0.5,0],[1,0.75,0]];outlineConnect=0;fontColor=#232F3E;fillColor=#DD344C;strokeColor=#ffffff;dashed=0;verticalLabelPosition=bottom;verticalAlign=top;align=center;html=1;fontSize=12;fontStyle=0;aspect=fixed;shape=mxgraph.aws4.resourceIcon;resIcon=mxgraph.aws4.certificate_manager_3;" vertex="1" parent="OEOBWxkeJsOvRuTqIj0s-47">
          <mxGeometry x="220" y="182" width="78" height="78" as="geometry" />
        </mxCell>
        <mxCell id="OEOBWxkeJsOvRuTqIj0s-58" style="edgeStyle=orthogonalEdgeStyle;rounded=0;orthogonalLoop=1;jettySize=auto;html=1;exitX=1;exitY=0.25;exitDx=0;exitDy=0;exitPerimeter=0;entryX=0;entryY=0.5;entryDx=0;entryDy=0;entryPerimeter=0;" edge="1" parent="OEOBWxkeJsOvRuTqIj0s-47" source="OEOBWxkeJsOvRuTqIj0s-48" target="OEOBWxkeJsOvRuTqIj0s-49">
          <mxGeometry relative="1" as="geometry" />
        </mxCell>
        <mxCell id="OEOBWxkeJsOvRuTqIj0s-59" value="AWS Accounts" style="edgeStyle=orthogonalEdgeStyle;html=1;endArrow=block;elbow=vertical;startArrow=block;startFill=1;endFill=1;strokeColor=#545B64;rounded=0;entryX=0.5;entryY=0;entryDx=0;entryDy=0;entryPerimeter=0;exitX=1;exitY=0.75;exitDx=0;exitDy=0;exitPerimeter=0;" edge="1" parent="OEOBWxkeJsOvRuTqIj0s-47" source="OEOBWxkeJsOvRuTqIj0s-48" target="OEOBWxkeJsOvRuTqIj0s-50">
          <mxGeometry width="100" relative="1" as="geometry">
            <mxPoint x="160" y="152" as="sourcePoint" />
            <mxPoint x="260" y="152" as="targetPoint" />
          </mxGeometry>
        </mxCell>
        <mxCell id="OEOBWxkeJsOvRuTqIj0s-51" value="sa-east-1" style="points=[[0,0],[0.25,0],[0.5,0],[0.75,0],[1,0],[1,0.25],[1,0.5],[1,0.75],[1,1],[0.75,1],[0.5,1],[0.25,1],[0,1],[0,0.75],[0,0.5],[0,0.25]];outlineConnect=0;gradientColor=none;html=1;whiteSpace=wrap;fontSize=12;fontStyle=0;container=1;pointerEvents=0;collapsible=0;recursiveResize=0;shape=mxgraph.aws4.group;grIcon=mxgraph.aws4.group_region;strokeColor=#00A4A6;fillColor=none;verticalAlign=top;align=left;spacingLeft=30;fontColor=#147EBA;dashed=1;" vertex="1" parent="OEOBWxkeJsOvRuTqIj0s-46">
          <mxGeometry x="420" y="30" width="200" height="300" as="geometry" />
        </mxCell>
        <mxCell id="OEOBWxkeJsOvRuTqIj0s-54" value="Amazon Certificate&lt;br&gt;Manager" style="sketch=0;points=[[0,0,0],[0.25,0,0],[0.5,0,0],[0.75,0,0],[1,0,0],[0,1,0],[0.25,1,0],[0.5,1,0],[0.75,1,0],[1,1,0],[0,0.25,0],[0,0.5,0],[0,0.75,0],[1,0.25,0],[1,0.5,0],[1,0.75,0]];outlineConnect=0;fontColor=#232F3E;fillColor=#DD344C;strokeColor=#ffffff;dashed=0;verticalLabelPosition=bottom;verticalAlign=top;align=center;html=1;fontSize=12;fontStyle=0;aspect=fixed;shape=mxgraph.aws4.resourceIcon;resIcon=mxgraph.aws4.certificate_manager_3;" vertex="1" parent="OEOBWxkeJsOvRuTqIj0s-51">
          <mxGeometry x="60" y="102" width="78" height="78" as="geometry" />
        </mxCell>
        <mxCell id="OEOBWxkeJsOvRuTqIj0s-60" value="" style="edgeStyle=orthogonalEdgeStyle;html=1;endArrow=block;elbow=vertical;startArrow=block;startFill=1;endFill=1;strokeColor=#545B64;rounded=0;exitX=1;exitY=0.5;exitDx=0;exitDy=0;exitPerimeter=0;entryX=0;entryY=0.5;entryDx=0;entryDy=0;entryPerimeter=0;" edge="1" parent="OEOBWxkeJsOvRuTqIj0s-46" source="OEOBWxkeJsOvRuTqIj0s-48" target="OEOBWxkeJsOvRuTqIj0s-54">
          <mxGeometry width="100" relative="1" as="geometry">
            <mxPoint x="280" y="162" as="sourcePoint" />
            <mxPoint x="380" y="162" as="targetPoint" />
          </mxGeometry>
        </mxCell>
        <mxCell id="OEOBWxkeJsOvRuTqIj0s-56" value="" style="edgeStyle=orthogonalEdgeStyle;html=1;endArrow=block;elbow=vertical;startArrow=block;startFill=1;endFill=1;strokeColor=#545B64;rounded=0;entryX=0;entryY=0.5;entryDx=0;entryDy=0;entryPerimeter=0;exitX=0.5;exitY=0;exitDx=0;exitDy=0;exitPerimeter=0;" edge="1" parent="1" source="OEOBWxkeJsOvRuTqIj0s-8" target="OEOBWxkeJsOvRuTqIj0s-48">
          <mxGeometry width="100" relative="1" as="geometry">
            <mxPoint x="1010" y="1160" as="sourcePoint" />
            <mxPoint x="1110" y="1160" as="targetPoint" />
            <Array as="points">
              <mxPoint x="485" y="1130" />
              <mxPoint x="990" y="1130" />
              <mxPoint x="990" y="1239" />
            </Array>
          </mxGeometry>
        </mxCell>
      </root>
    </mxGraphModel>
  </diagram>
</mxfile>
